<svg id="Layer_1" data-name="Layer 1" xmlns="http://www.w3.org/2000/svg" xmlns:xlink="http://www.w3.org/1999/xlink" viewBox="0 0 1500 414.68"><defs><style>.cls-1{fill:#0b1f47;}.cls-2{clip-path:url(#clip-path);}.cls-3{opacity:0.5;}.cls-4{clip-path:url(#clip-path-3);}.cls-5{fill:#fff;}.cls-6{fill:#318fff;}.cls-7{fill:#ffe025;}</style><clipPath id="clip-path"><rect class="cls-1" x="0.4" y="-0.28" width="1499.6" height="414.57"/></clipPath><clipPath id="clip-path-3"><rect class="cls-1" x="-46.42" y="-36.69" width="1593.24" height="456.19"/></clipPath></defs><rect class="cls-1" x="0.4" y="-0.28" width="1499.6" height="414.57"/><g class="cls-2"><rect class="cls-1" x="0.4" y="-0.28" width="1499.6" height="414.57"/><g class="cls-2"><g class="cls-3"><rect class="cls-1" x="-46.42" y="-36.69" width="1593.24" height="456.19"/><g class="cls-4"><path class="cls-1" d="M1500-.28H.4V414.29H1500Z"/></g></g></g></g><path class="cls-5" d="M648.88,268.75a10,10,0,0,1-3.62-4.93l-23.33-68.35a8.78,8.78,0,0,1-.49-2.79,7.29,7.29,0,0,1,7.39-7.4,7.46,7.46,0,0,1,4.19,1.24,6,6,0,0,1,2.55,3.2L654.79,253l19.06-61.77a8.43,8.43,0,0,1,16.1,0L709,253l19.22-63.25a6,6,0,0,1,2.55-3.2,7.46,7.46,0,0,1,4.19-1.24,7.29,7.29,0,0,1,7.39,7.4,8.78,8.78,0,0,1-.49,2.79l-23.33,68.35a10.11,10.11,0,0,1-3.62,4.93,9.87,9.87,0,0,1-11.83,0,11,11,0,0,1-3.77-5.1L681.9,209.27l-17.42,54.38a11,11,0,0,1-3.77,5.1,9.87,9.87,0,0,1-11.83,0"/><path class="cls-5" d="M810.38,254.78a25.1,25.1,0,0,0,10.19-9.85q4-6.75,4-17.09,0-10.18-4-16.92a24.53,24.53,0,0,0-10.19-9.78,28.74,28.74,0,0,0-12.9-3,29.09,29.09,0,0,0-13.06,3,24,24,0,0,0-10.1,9.78q-4,6.74-4,16.92,0,10.35,4,17.09a24.54,24.54,0,0,0,10.1,9.85,28.4,28.4,0,0,0,13.06,3.12,28.05,28.05,0,0,0,12.9-3.12M775.3,266.12a36.8,36.8,0,0,1-14.7-15.36,52.57,52.57,0,0,1,0-45.51,36.89,36.89,0,0,1,14.7-15.37,47.77,47.77,0,0,1,44.2,0,37.46,37.46,0,0,1,14.79,15.37,51.85,51.85,0,0,1,0,45.51,37.38,37.38,0,0,1-14.79,15.36,47.77,47.77,0,0,1-44.2,0"/><path class="cls-5" d="M864.75,268.59a7.14,7.14,0,0,1-2.14-5.26V192.84a7.41,7.41,0,0,1,2.14-5.34,7,7,0,0,1,5.25-2.22,7.58,7.58,0,0,1,7.56,7.56v7.07q11.51-15.45,25.8-15.45h.82a6.89,6.89,0,0,1,5.17,2.14,7.27,7.27,0,0,1,2.06,5.25,6.59,6.59,0,0,1-2.14,5.1,7.65,7.65,0,0,1-5.42,2H903a28.06,28.06,0,0,0-14.46,3.86,33.42,33.42,0,0,0-11,10.6v49.95a7,7,0,0,1-2.22,5.26,7.44,7.44,0,0,1-5.34,2.13,7.13,7.13,0,0,1-5.25-2.13"/><path class="cls-5" d="M931.11,268.59a7.14,7.14,0,0,1-2.14-5.26V156.7a7.39,7.39,0,0,1,2.14-5.34,7,7,0,0,1,5.26-2.22,7.56,7.56,0,0,1,7.55,7.56v67.19L983,187.75a7.52,7.52,0,0,1,4.93-2.14q3.78,0,5.5,2.14a7.86,7.86,0,0,1,1.73,5.09c0,1.87-.94,3.73-2.8,5.59l-23.66,21.19,29.74,39.44a7.13,7.13,0,0,1,1.65,4.43,6.83,6.83,0,0,1-2.14,5.26,7.71,7.71,0,0,1-5.42,2,7.37,7.37,0,0,1-3.29-.82,8,8,0,0,1-2.79-2.3l-28.26-38.45-14.3,13v21.2a7.05,7.05,0,0,1-2.21,5.26,7.44,7.44,0,0,1-5.34,2.13,7.16,7.16,0,0,1-5.26-2.13"/><path class="cls-5" d="M1030.67,268.59a7.17,7.17,0,0,1-2.13-5.26V198.92h-9.7a6.45,6.45,0,0,1-4.51-11,6.29,6.29,0,0,1,4.51-1.8h9.7v-9.54q0-9.85,3.53-16.18a21.92,21.92,0,0,1,9.2-9.2,26,26,0,0,1,11.91-2.87,31.56,31.56,0,0,1,14.3,3.28,7.12,7.12,0,0,1,2.7,2.39,5.78,5.78,0,0,1,1.07,3.36,6.13,6.13,0,0,1-1.8,4.36,5.73,5.73,0,0,1-4.28,1.89,15.6,15.6,0,0,1-3.78-.5c-2.62-.33-4.1-.49-4.43-.49q-6.74,0-10.1,3.12c-2.25,2.09-3.37,5.86-3.37,11.34v9H1064a6.45,6.45,0,0,1,4.6,10.92,6.1,6.1,0,0,1-4.6,1.89h-20.54v64.41a7,7,0,0,1-2.22,5.26,7.44,7.44,0,0,1-5.34,2.13,7.16,7.16,0,0,1-5.26-2.13"/><path class="cls-5" d="M1090.28,268.59a7.17,7.17,0,0,1-2.13-5.26V192.84a7.44,7.44,0,0,1,2.13-5.34,7,7,0,0,1,5.26-2.22,7.56,7.56,0,0,1,7.55,7.56v7.07q11.51-15.45,25.8-15.45h.82a6.91,6.91,0,0,1,5.18,2.14,7.27,7.27,0,0,1,2,5.25,6.59,6.59,0,0,1-2.14,5.1,7.65,7.65,0,0,1-5.42,2h-.82a28.08,28.08,0,0,0-14.46,3.86,33.51,33.51,0,0,0-11,10.6v49.95a7,7,0,0,1-2.21,5.26,7.44,7.44,0,0,1-5.34,2.13,7.16,7.16,0,0,1-5.26-2.13"/><path class="cls-5" d="M1210.63,221.1a26.38,26.38,0,0,0-4.19-13.47,22.74,22.74,0,0,0-9.12-8,25,25,0,0,0-22,0,22,22,0,0,0-9,8,26.83,26.83,0,0,0-4.11,13.47Zm-52.33,39Q1147,248.71,1147,228a53.51,53.51,0,0,1,4.27-21.52,36.58,36.58,0,0,1,13.15-15.94q8.86-6.07,21.85-6.08,12.17,0,21,5.67a36.61,36.61,0,0,1,13.47,15.11,46.47,46.47,0,0,1,4.6,20.63,7.18,7.18,0,0,1-7.55,7.39h-55.7q1.3,11.51,8.54,17.91t20.21,6.41a46.13,46.13,0,0,0,22.18-5.1,6.88,6.88,0,0,1,7.56,1.15,6,6,0,0,1,2,4.6q0,3.61-4.27,6.09a51.46,51.46,0,0,1-28.75,7.22q-20.05,0-31.3-11.42"/><path class="cls-5" d="M1306.79,221.1a26.28,26.28,0,0,0-4.19-13.47,22.61,22.61,0,0,0-9.12-8,25,25,0,0,0-22,0,22.09,22.09,0,0,0-9,8,26.83,26.83,0,0,0-4.11,13.47Zm-52.33,39q-11.26-11.42-11.25-32.12a53.51,53.51,0,0,1,4.27-21.52,36.63,36.63,0,0,1,13.14-15.94q8.88-6.07,21.86-6.08,12.15,0,21,5.67A36.7,36.7,0,0,1,1317,205.24a46.47,46.47,0,0,1,4.6,20.63,7.18,7.18,0,0,1-7.56,7.39h-55.7q1.32,11.51,8.55,17.91t20.2,6.41a46.2,46.2,0,0,0,22.19-5.1,6.86,6.86,0,0,1,7.55,1.15,5.94,5.94,0,0,1,2,4.6q0,3.61-4.27,6.09a51.46,51.46,0,0,1-28.75,7.22q-20,0-31.3-11.42"/><path class="cls-5" d="M1345.73,268.59a7.17,7.17,0,0,1-2.13-5.26V156.7a7.42,7.42,0,0,1,2.13-5.34,7,7,0,0,1,5.26-2.22,7.29,7.29,0,0,1,7.55,7.56V263.33a7,7,0,0,1-2.21,5.26,7.44,7.44,0,0,1-5.34,2.13,7.16,7.16,0,0,1-5.26-2.13"/><path class="cls-5" d="M1388.37,268.59a7.14,7.14,0,0,1-2.14-5.26V192.84a7.41,7.41,0,0,1,2.14-5.34,7,7,0,0,1,5.25-2.22,7.32,7.32,0,0,1,7.56,7.56v70.49a7,7,0,0,1-2.22,5.26,7.44,7.44,0,0,1-5.34,2.13,7.13,7.13,0,0,1-5.25-2.13m-1-102a8,8,0,0,1-2.47-5.91V160a8.43,8.43,0,0,1,8.38-8.38h1a8.43,8.43,0,0,1,8.38,8.38v.66a8.43,8.43,0,0,1-8.38,8.38h-1a8.07,8.07,0,0,1-5.91-2.47"/><path class="cls-6" d="M523.83,90.2H428.31c.23.26.44.55.67.82a24.31,24.31,0,0,1,9.76,2.88c13.19,7.15,18.95,24.56,13.1,39.64-.5,1.28-3,7-7.28,16.4l79.23-.22c14.54,0,26.34-13.35,26.34-29.76S538.33,90.2,523.83,90.2Z"/><path class="cls-5" d="M171.93,276.42l24-52.68C167.65,161.8,142,106,141,103.83c-5-8.53-13.38-13.63-22.48-13.63a24.06,24.06,0,0,0-11.58,3c-13.2,7.14-19,24.56-13.11,39.65,2.24,5.68,57.08,126.22,78.49,172.59A33.81,33.81,0,0,1,171.93,276.42Z"/><path class="cls-6" d="M295.78,103.84c-5-8.64-13.25-13.6-22.54-13.6s-17.51,5-22.57,13.6c-2.61,5.43-29,63.42-54.77,119.9l-24,52.68a33.81,33.81,0,0,0,.39,29l.06.13v0A28.65,28.65,0,0,0,184.24,318a24.06,24.06,0,0,0,11.58,3c10.11,0,19.29-6.32,24-16.49h0c.33-.78.74-1.67,1.24-2.76,4.77-10.43,22.32-48.79,39.49-86.42l12.7-27.84,12.7,27.84c5.27,11.55,31.88,70.18,36.84,81a2.09,2.09,0,0,0,.22.2c-3-6.4-7.27-15.75-11.35-24.66,10,10,16.07-.62,20.19-8.54,1.36-2.61,8.84-18.72,18.55-39.76C326.7,171.58,297.43,107.28,295.78,103.84Z"/><path class="cls-5" d="M439.51,93.2a24.15,24.15,0,0,0-9.76-2.88c-.6,0-1.2-.12-1.81-.12a23.16,23.16,0,0,0-2.51.18c-8.16.85-15.53,5.77-20.07,13.62-.82,1.62-33.41,72.79-55,119.57-9.71,21-17.19,37.15-18.55,39.76-4.12,7.92-10.21,18.51-20.19,8.54,4.08,8.91,8.39,18.26,11.35,24.66l3.69,8a29.93,29.93,0,0,0,10.26,12.25l.8.49A24.24,24.24,0,0,0,350.6,321c10.11,0,19.3-6.32,24-16.49,0,0,68.93-151.17,70.73-155.17l0-.07c4.26-9.43,6.79-15.12,7.29-16.39C458.47,117.76,452.71,100.34,439.51,93.2Z"/><circle class="cls-7" cx="480.72" cy="228.83" r="28.67"/></svg>